<svg width="15" height="24" viewBox="0 0 15 24" fill="none" xmlns="http://www.w3.org/2000/svg">
<path d="M14.474 0.955409C14.474 0.781069 14.4047 0.613869 14.2814 0.490591C14.1581 0.367314 13.9909 0.298057 13.8166 0.298057H10.5298C8.87479 0.215613 7.25439 0.791586 6.02267 1.90013C4.79096 3.00867 4.04807 4.55967 3.95632 6.21423V9.76393H0.669559C0.495219 9.76393 0.328019 9.83319 0.204741 9.95647C0.0814637 10.0797 0.012207 10.2469 0.012207 10.4213V13.8395C0.012207 14.0139 0.0814637 14.1811 0.204741 14.3043C0.328019 14.4276 0.495219 14.4969 0.669559 14.4969H3.95632V23.3054C3.95632 23.4797 4.02558 23.6469 4.14885 23.7702C4.27213 23.8935 4.43933 23.9627 4.61367 23.9627H8.55779C8.73213 23.9627 8.89933 23.8935 9.02261 23.7702C9.14588 23.6469 9.21514 23.4797 9.21514 23.3054V14.4969H12.6597C12.8058 14.499 12.9486 14.4523 13.0652 14.3642C13.1819 14.2761 13.2659 14.1516 13.3039 14.0104L14.2505 10.5922C14.2766 10.4951 14.2801 10.3932 14.2607 10.2945C14.2413 10.1958 14.1996 10.1029 14.1386 10.0229C14.0776 9.94288 13.9991 9.87793 13.9091 9.83303C13.8191 9.78814 13.72 9.7645 13.6194 9.76393H9.21514V6.21423C9.24784 5.88881 9.40066 5.58726 9.64377 5.36847C9.88687 5.14968 10.2028 5.02936 10.5298 5.03099H13.8166C13.9909 5.03099 14.1581 4.96174 14.2814 4.83846C14.4047 4.71518 14.474 4.54798 14.474 4.37364V0.955409Z" fill="white"/>
</svg>
