<svg width="24" height="24" viewBox="0 0 24 24" fill="none" xmlns="http://www.w3.org/2000/svg">
<path d="M23.4813 9.80851H22.5279V9.75939H11.8753V14.4939H18.5645C17.5886 17.2499 14.9663 19.2284 11.8753 19.2284C7.95336 19.2284 4.77355 16.0486 4.77355 12.1266C4.77355 8.2047 7.95336 5.0249 11.8753 5.0249C13.6856 5.0249 15.3327 5.70785 16.5867 6.82341L19.9346 3.47553C17.8206 1.50539 14.993 0.290405 11.8753 0.290405C5.33873 0.290405 0.0390625 5.59008 0.0390625 12.1266C0.0390625 18.6632 5.33873 23.9629 11.8753 23.9629C18.4119 23.9629 23.7115 18.6632 23.7115 12.1266C23.7115 11.333 23.6299 10.5583 23.4813 9.80851Z" fill="#FFC107"/>
<path d="M1.40405 6.61746L5.29285 9.4694C6.34509 6.86425 8.89343 5.0249 11.8756 5.0249C13.6859 5.0249 15.3329 5.70785 16.587 6.82341L19.9349 3.47553C17.8209 1.50539 14.9932 0.290405 11.8756 0.290405C7.32927 0.290405 3.38662 2.85709 1.40405 6.61746Z" fill="#FF3D00"/>
<path d="M11.8756 23.9629C14.9329 23.9629 17.7108 22.7929 19.8112 20.8902L16.1479 17.7903C14.9196 18.7244 13.4187 19.2296 11.8756 19.2284C8.79698 19.2284 6.18295 17.2654 5.19817 14.5259L1.33838 17.4997C3.29728 21.3329 7.27543 23.9629 11.8756 23.9629Z" fill="#4CAF50"/>
<path d="M23.4817 9.80852H22.5283V9.7594H11.8757V14.4939H18.565C18.0982 15.8056 17.2573 16.9518 16.1462 17.7909L16.148 17.7897L19.8113 20.8896C19.5521 21.1251 23.712 18.0448 23.712 12.1266C23.712 11.333 23.6303 10.5583 23.4817 9.80852Z" fill="#1976D2"/>
</svg>
