<svg width="182" height="114" viewBox="0 0 182 114" fill="none" xmlns="http://www.w3.org/2000/svg">
<g filter="url(#filter0_d_10_437)">
<g opacity="0.21">
<path opacity="0.21" d="M119.772 51.9597C119.772 51.9597 92.543 66.6178 83.8507 55.8464L82.5344 55.8806L88.0729 61.2738L91.981 63.6734L97.0409 64.7802H102.588L108.646 63.6734L114.267 60.4276L119.77 56.4383L122.308 54.5921V53.1691L119.772 51.9597Z" fill="#EE2A7B"/>
<path opacity="0.21" d="M83.5369 52.731C83.5369 52.731 110.34 41.8314 107.075 24.3505L109.409 24.1497L110.219 25.0471L108.768 34.748L105.866 43.0173L101.637 48.5857L95.9515 51.9617L91.9792 53.9041H85.8424L83.5369 52.731Z" fill="#EE2A7B"/>
<path opacity="0.21" d="M80.4361 51.9596C80.4361 51.9596 92.0088 31.3527 77.793 14.5983L80.4361 11.6047C80.4361 11.6047 82.6541 15.3227 85.2332 17.7223C87.8122 20.1219 91.1969 32.842 91.1969 32.842L90.3507 41.7181L84.8763 49.5429L80.4361 51.9596Z" fill="#EE2A7B"/>
</g>
<path d="M70.8486 61.6605V63.7695C76.9149 60.9981 80.4683 54.1092 80.4683 54.1092L80.87 52.9853L79.9854 51.9148L80.0688 52.9426L80.4662 54.1092C81.3508 56.0366 87.8573 66.0003 99.8274 66.0794C109.37 66.1435 119.214 58.5024 122.817 55.3977C123.879 56.2994 126.099 57.6691 129.193 57.8443C132.768 58.0451 134.657 53.9874 134.657 53.9874C134.657 53.9874 132.165 50.1306 128.872 50.2118C126.05 50.2801 123.676 52.2332 123.052 52.7908C117.642 47.4682 106.599 43.3421 106.599 43.3421C109.33 38.7523 110.712 33.0386 111.321 25.2651L111.323 25.2672C111.323 25.2672 120.477 25.1048 119.112 15.9467C119.112 15.9467 110.898 13.1005 109.552 23.3334C106.605 23.5215 100.733 24.2501 93.6436 27.0258C92.868 27.3292 92.1393 27.6689 91.4449 28.0279C90.4726 25.3869 86.9299 16.4659 81.9299 11.9616C88.2226 3.64959 80.667 0 80.667 0C73.7931 4.39746 78.1115 10.4402 79.3636 11.953C78.8252 12.4402 78.2611 13.0898 78.0367 13.8206V16.2907V16.562C78.0367 16.562 79.7247 14.1518 80.7183 13.3377C80.7183 13.3377 87.3295 21.0386 89.5453 29.1369C82.6371 33.6497 80.6286 40.5023 80.6286 40.5023C79.7846 38.4639 78.5602 36.5878 78.5602 36.5878L77.6179 38.6049L78.5602 39.951C80.2696 44.9938 79.3423 51.137 79.3423 51.137C74.3615 47.6028 72.5645 42.6028 72.5645 42.6028L71.87 45.5558C73.1157 48.6904 77.6179 52.7844 77.6179 52.7844L78.0559 54.7524C74.8444 59.6114 70.8486 61.6605 70.8486 61.6605ZM80.6585 10.6432C76.4704 5.05985 80.6585 2.36753 80.6585 2.36753C84.9064 5.62182 80.6585 10.6432 80.6585 10.6432ZM111.509 23.2715C112.466 16.3078 117.265 17.5941 117.265 17.5941C117.667 23.2993 111.601 23.2736 111.601 23.2736C111.601 23.2736 111.569 23.2715 111.509 23.2715ZM104.671 42.8613C104.671 42.8613 98.6222 40.5066 90.1051 44.6092C90.1051 44.6092 94.0667 38.2822 91.8957 30.2074C91.8957 30.2074 98.6436 25.8099 109.55 25.2672C109.552 25.2672 109.127 34.6604 104.671 42.8613ZM103.708 44.607C103.708 44.607 97.1393 55.5921 83.7632 52.8614C83.7632 52.8635 90.4513 41.8357 103.708 44.607ZM124.257 53.9874C129.379 49.7716 132.451 53.9105 132.451 53.9105C129.439 58.4939 124.257 53.9874 124.257 53.9874ZM83.3124 54.8315C83.3124 54.8315 98.4235 57.6242 105.475 45.1797C105.475 45.1797 114.372 47.278 121.603 54.1883C121.603 54.1883 108.701 64.4533 99.8509 64.2503C91.0004 64.0494 84.6286 57.2417 83.3124 54.8315ZM90.1051 30.9104C90.1051 30.9104 93.4641 42.7203 81.8337 51.1349C81.8359 51.1349 79.276 38.6049 90.1051 30.9104Z" fill="white"/>
<path d="M70.8488 11.8697C70.8488 11.8697 62.0923 11.75 56.3081 15.7672C50.5239 19.7843 50.6029 25.0065 50.5239 26.1304C50.4427 27.2544 51.9704 34.0044 50.5239 35.8527C49.0773 37.701 46.808 40.8549 46.8679 41.8784C46.9277 42.9019 50.8444 44.107 50.7845 45.1925C50.7247 46.278 49.5196 47.06 50.1221 47.7224C50.7247 48.3848 50.182 49.2288 50.182 49.2288C50.182 49.2288 51.9299 50.5536 52.1093 51.3976C52.291 52.2417 52.1692 56.3378 52.6521 56.8207C53.135 57.3037 60.5453 58.0857 66.8124 55.8571C66.8124 55.8571 66.3915 56.5665 64.2825 57.3571C64.2825 57.3571 69.4043 61.7823 70.8509 63.7695V50.1327H64.8851V40.9126H70.8509V38.0814H65.368V31.6347H59.2226V22.6561H65.0068V16.7501H70.8509V11.8697H70.8488Z" fill="#EF549F"/>
<path d="M66.6601 48.5052L72.5662 48.5052L72.5662 42.5992L66.6601 42.5992L66.6601 48.5052Z" fill="#DA1C5C"/>
<path d="M67.083 36.2137L72.3865 36.2137L72.3865 30.9102L67.083 30.9102L67.083 36.2137Z" fill="#DA1C5C"/>
<path d="M60.4846 29.8757L65.7881 29.8757L65.7881 24.5722L60.4846 24.5722L60.4846 29.8757Z" fill="#DA1C5C"/>
<path d="M66.7015 23.2697L72.0049 23.2697L72.0049 17.9663L66.7015 17.9663L66.7015 23.2697Z" fill="#DA1C5C"/>
<path d="M72.6375 17.2528L77.9409 17.2528L77.9409 11.9494L72.6375 11.9494L72.6375 17.2528Z" fill="#DA1C5C"/>
<path d="M72.6375 32.0409L77.9409 32.0409L77.9409 26.7375L72.6375 26.7375L72.6375 32.0409Z" fill="#DA1C5C"/>
<path d="M73.2598 41.8866L78.5632 41.8866L78.5632 36.5832L73.2598 36.5832L73.2598 41.8866Z" fill="#DA1C5C"/>
<path d="M79.2355 28.3439L82.8701 28.3439L82.8701 24.7092L79.2355 24.7092L79.2355 28.3439Z" fill="#DA1C5C"/>
<path d="M79.2355 16.0204L82.8701 16.0204L82.8701 12.3858L79.2355 12.3858L79.2355 16.0204Z" fill="#DA1C5C"/>
<path d="M84.739 16.0384L89.0317 16.0384L89.0317 11.7456L84.739 11.7456L84.739 16.0384Z" fill="#DA1C5C"/>
<path d="M90.1074 16.0204L94.2549 16.0204L94.2549 11.873L90.1074 11.873L90.1074 16.0204Z" fill="#DA1C5C"/>
<path d="M85.5168 28.3439L89.0317 28.3439L89.0317 24.8289L85.5168 24.8289L85.5168 28.3439Z" fill="#DA1C5C"/>
<path d="M85.5168 40.6673L89.0317 40.6673L89.0317 37.1523L85.5168 37.1523L85.5168 40.6673Z" fill="#DA1C5C"/>
<path d="M14.5744 88.2739C14.6086 88.3081 14.6086 88.3423 14.6086 88.447C14.5402 88.5517 13.8458 91.4256 13.7432 91.8936C13.2923 91.8765 8.30087 91.8423 6.53163 91.8423C4.9718 91.8423 4.34786 91.8936 4.1406 91.8936C4.00171 91.8936 4.00171 91.8594 4.00171 91.7376V91.3402C4.00171 91.2355 4.00171 91.2013 4.10641 91.2013H4.80086C5.42479 91.2013 5.52949 90.9598 5.52949 90.7333C5.52949 90.4213 5.59787 86.0901 5.59787 85.0517V84.0816C5.59787 82.9726 5.56368 81.1371 5.52949 80.8422C5.49531 80.3914 5.42479 80.2183 4.97394 80.2183H4.2453C4.1406 80.2183 4.10641 80.1136 4.10641 80.0623V79.6649C4.10641 79.5623 4.1406 79.526 4.2453 79.526C4.41838 79.526 5.04231 79.5773 6.63847 79.5773C8.51028 79.5773 9.23891 79.526 9.3778 79.526C9.51669 79.526 9.55088 79.5944 9.55088 79.682V80.0794C9.55088 80.1478 9.51669 80.2183 9.3778 80.2183H8.4419C7.92266 80.2183 7.85215 80.3914 7.85215 80.8593C7.85215 81.1008 7.78378 83.6991 7.78378 84.9128V86.4021C7.78378 86.7141 7.78378 90.4555 7.85215 91.1991H8.82224C9.79233 91.1991 11.0402 91.1991 11.7346 91.1137C12.7069 90.9748 13.8159 88.8957 14.0573 88.2376C14.1257 88.1692 14.162 88.1329 14.2646 88.1692L14.5744 88.2739Z" fill="white"/>
<path d="M26.2199 80.7033C27.5212 81.761 28.5768 83.4747 28.5768 85.8294C28.5768 87.1114 28.2306 88.4619 27.2947 89.6392C26.1857 91.026 24.6943 92.0986 22.0938 92.0986C21.0532 92.0986 19.5639 91.7867 18.1771 90.9555C16.9464 90.2097 15.6472 88.323 15.6472 85.8294C15.6472 84.7909 15.9421 83.1456 17.2434 81.5345C18.769 79.6627 20.6408 79.3165 22.1323 79.3165C23.4122 79.3187 24.799 79.5601 26.2199 80.7033ZM19.5639 81.0516C18.5062 82.0729 18.0041 83.8571 18.0041 85.2439C18.0041 89.7482 20.7776 91.3401 22.2327 91.3401C25.7349 91.3401 26.2883 87.4597 26.2883 86.0046C26.2883 82.2289 23.722 80.0815 22.0596 80.0815C21.7498 80.0794 20.7434 79.9063 19.5639 81.0516Z" fill="white"/>
<path d="M34.4183 80.3059H33.9333C33.3799 80.3059 32.1299 80.3059 31.4034 80.5474C30.8499 80.7888 30.1897 81.9341 29.8606 82.5217C29.8093 82.6072 29.7559 82.6777 29.6705 82.6435L29.3243 82.5217C29.2559 82.4875 29.2388 82.4363 29.2559 82.3486C29.429 81.6905 30.0187 79.4042 30.0871 79.1627C30.1213 78.9213 30.226 78.8508 30.2944 78.8508C30.3991 78.8508 30.4675 78.9191 30.5722 79.0238C30.9183 79.37 31.2645 79.4576 31.7517 79.4747C32.6876 79.5089 33.4162 79.5794 35.1149 79.5794H36.0508C37.9568 79.5794 38.6854 79.511 39.4825 79.4747C39.8115 79.4576 40.4718 79.2162 40.7303 79.0238C40.8692 78.9191 40.9376 78.8508 41.0423 78.8508C41.147 78.8508 41.1812 78.9192 41.2154 79.1264C41.2496 79.4384 41.5957 81.5858 41.7346 82.417C41.7517 82.5217 41.7175 82.5559 41.6662 82.573L41.3201 82.6948C41.2517 82.7119 41.2154 82.6606 41.1641 82.5559C40.9226 82.0709 40.2795 80.9619 39.7944 80.6157C39.3094 80.3401 37.7495 80.3038 37.1256 80.3038H36.6406V89.5367C36.6406 90.853 36.8136 91.1991 37.2303 91.1991H38.2367C38.3051 91.1991 38.3414 91.2675 38.3414 91.3551V91.7184C38.3414 91.8231 38.3072 91.8914 38.1683 91.8914C37.9953 91.8914 37.4397 91.8402 35.5679 91.8402C33.8008 91.8402 33.0722 91.8914 32.8286 91.8914C32.7239 91.8914 32.6897 91.8572 32.6897 91.7354V91.338C32.6897 91.2333 32.741 91.1991 32.8115 91.1991H33.8008C34.147 91.1991 34.3542 90.9919 34.3713 90.7312C34.4226 90.2803 34.4226 84.9811 34.4226 84.635V80.3059H34.4183Z" fill="white"/>
<path d="M43.7925 81.0858C43.7925 80.4982 43.6536 80.2205 43.2027 80.2205H42.4057C42.301 80.2205 42.2668 80.1863 42.2668 80.0645V79.667C42.2668 79.5645 42.301 79.5281 42.4399 79.5281C42.613 79.5281 43.4463 79.5794 45.1087 79.5794C46.566 79.5794 47.3972 79.5281 47.6045 79.5281C47.7092 79.5281 47.7434 79.5623 47.7434 79.6499V80.0816C47.7434 80.1863 47.7092 80.2205 47.6045 80.2205H46.8758C46.3566 80.2205 46.0446 80.5324 46.0254 80.8957C46.0083 81.1029 45.9741 82.1435 45.9741 83.1478V85.2953C45.9741 86.1606 45.9912 87.3914 46.0254 87.9448C46.0767 88.7418 46.2156 89.5389 46.6322 90.0923C47.222 90.8893 48.1579 91.1649 48.9891 91.1649C49.7861 91.1649 50.7562 90.853 51.3118 90.3337C51.9699 89.6756 52.3182 88.6713 52.3182 87.4064V84.2888C52.3182 82.9021 52.1793 81.3786 52.128 80.9811C52.0767 80.5303 51.7989 80.2183 51.4165 80.2183H50.7925C50.6878 80.2183 50.6536 80.167 50.6536 80.0965V79.6627C50.6536 79.5602 50.6878 79.5239 50.7925 79.5239C50.9656 79.5239 51.7626 79.5751 52.9058 79.5751C53.9806 79.5751 54.5361 79.5239 54.675 79.5239C54.831 79.5239 54.8481 79.5751 54.8481 79.6627V80.0602C54.8481 80.1649 54.831 80.2162 54.7434 80.2162H54.1195C53.4955 80.2162 53.4271 80.7012 53.3908 80.8914C53.3566 81.0987 53.3566 83.5239 53.3566 83.7482C53.3566 83.9897 53.3224 87.0047 53.2519 87.697C53.1472 89.1179 52.7327 90.1906 51.7947 91.0218C51.0682 91.6799 49.957 92.0944 48.6408 92.0944C47.8096 92.0944 46.8032 91.9555 46.1451 91.6799C45.1387 91.2654 44.4463 90.4683 44.1002 89.3594C43.8587 88.5965 43.7882 87.4534 43.7882 85.1841V81.0858H43.7925Z" fill="white"/>
<path d="M56.7222 87.979C56.7906 87.979 56.8269 88.0132 56.8269 88.1179C56.8611 88.6713 57 89.3294 57.4851 90.0923C58.0043 90.9235 58.906 91.3401 59.7735 91.3401C60.7094 91.3401 62.0257 90.7504 62.0257 89.3124C62.0257 87.7183 61.297 87.1991 59.4594 86.5068C58.906 86.2995 57.7607 85.8145 56.9295 85.0517C56.3398 84.4982 56.0641 83.6307 56.0641 82.5751C56.0641 81.6051 56.4445 80.8081 57.2778 80.1499C57.9701 79.5623 58.7351 79.3187 59.7393 79.3187C60.8846 79.3187 61.577 79.5944 61.9231 79.7333C62.0962 79.8016 62.2009 79.7674 62.2864 79.682L62.5107 79.4576C62.5791 79.3892 62.6496 79.3529 62.7522 79.3529C62.8569 79.3529 62.8911 79.4576 62.8911 79.6307C62.8911 79.9063 63.1688 82.3316 63.1688 82.5046C63.1688 82.573 63.1347 82.6093 63.0641 82.6264L62.7864 82.7119C62.718 82.729 62.6475 82.7119 62.6133 82.6072C62.4402 82.1222 62.1624 81.4298 61.5385 80.7717C61.0876 80.2867 60.5321 80.0452 59.7351 80.0452C58.3483 80.0452 57.7949 81.1542 57.7949 81.7952C57.7949 82.385 57.8633 82.9042 58.2799 83.3551C58.7308 83.8038 59.7009 84.2205 60.3932 84.4277C61.3996 84.7397 62.2308 85.0858 62.8889 85.7781C63.4423 86.3679 63.7565 87.0944 63.7565 88.2547C63.7565 90.3679 62.3697 92.0987 60.0812 92.0987C58.6603 92.0987 57.8269 91.7867 57.1346 91.2675C56.9274 91.1286 56.8227 91.0602 56.718 91.0602C56.6133 91.0602 56.5449 91.1991 56.4423 91.3722C56.3376 91.5453 56.2693 91.5795 56.1304 91.5795C55.9915 91.5795 55.9231 91.4748 55.9231 91.3017C55.9573 91.0944 56.1987 88.2888 56.2351 88.0816C56.2522 87.9769 56.2692 87.9427 56.3398 87.9427L56.7222 87.979Z" fill="white"/>
<path d="M71.8351 87.0773C71.6962 87.4747 70.8479 89.9512 70.7603 90.4192C70.7261 90.5581 70.7261 90.6969 70.7261 90.7824C70.7261 91.0068 71.0039 91.1969 71.35 91.1969H72.0765C72.2154 91.1969 72.2496 91.2311 72.2496 91.2824V91.714C72.2496 91.8187 72.2154 91.8871 72.1107 91.8871C71.8693 91.8871 71.1406 91.8358 69.927 91.8358C68.6449 91.8358 68.2624 91.8871 68.021 91.8871C67.9163 91.8871 67.9163 91.7824 67.9163 91.6628V91.3337C67.9163 91.229 67.9505 91.1948 68.021 91.1948H68.5402C69.0252 91.1948 69.3372 90.9534 69.6492 90.4149C69.8223 90.1029 71.0701 86.9854 71.5894 85.5303C71.7112 85.1841 73.115 81.4426 73.2881 80.9918C73.3223 80.8187 73.427 80.5067 73.3223 80.4042C73.271 80.3529 73.2176 80.2482 73.2176 80.1969C73.2176 80.1285 73.2518 80.058 73.3907 80.0238C73.9462 79.8849 74.8992 79.3657 75.1065 79.1584C75.2112 79.0537 75.2795 78.9854 75.365 78.9854C75.4697 78.9854 75.5381 79.1926 75.5723 79.2973C75.8843 80.37 77.2368 84.2503 77.5488 85.3593C77.9633 86.7097 79.0744 89.932 79.3159 90.3999C79.6279 90.9875 80.0787 91.1969 80.4249 91.1969H80.9804C81.0851 91.1969 81.1193 91.2311 81.1193 91.3187V91.682C81.1193 91.7867 81.0851 91.8893 80.9462 91.8893C80.6343 91.8893 80.2881 91.838 78.3821 91.838C76.9249 91.838 76.3372 91.8893 75.9548 91.8893C75.8159 91.8893 75.7817 91.7846 75.7817 91.682V91.3358C75.7817 91.2311 75.8159 91.1969 75.9206 91.1969H76.3714C76.8565 91.1969 76.9954 91.0239 76.8907 90.5559C76.7518 89.932 76.0573 87.7162 75.8501 87.0751H71.8351V87.0773ZM75.6834 86.385C75.5103 85.8828 74.3308 81.9341 74.2283 81.5879C74.1599 81.3807 74.1236 81.276 74.0552 81.276C73.9505 81.276 73.8821 81.3443 73.8308 81.5003C73.7624 81.7247 72.2005 85.9875 72.0808 86.385H75.6834Z" fill="white"/>
<path d="M83.3784 83.8722C83.3784 83.4235 83.31 80.964 83.2737 80.7033C83.2395 80.2888 82.9959 80.2183 82.6498 80.2183H81.7138C81.6455 80.2183 81.575 80.1841 81.575 80.0965V79.6286C81.575 79.5602 81.6433 79.5239 81.7309 79.5239C82.2331 79.5239 83.1348 79.5751 84.3485 79.5751C85.216 79.5751 86.0814 79.5239 86.9489 79.5239C89.2716 79.5239 91.1434 79.7482 92.7395 81.1008C93.8827 82.0367 94.6797 83.4918 94.6797 85.5004C94.6797 87.4748 94.1242 88.791 92.981 90.0389C91.2823 91.8743 88.5771 91.8936 87.3998 91.8936C86.7416 91.8936 84.9724 91.8423 84.107 91.8423C82.5814 91.8423 81.8891 91.8936 81.6455 91.8936C81.5771 91.8936 81.5408 91.8594 81.5408 91.7376V91.3038C81.5408 91.2355 81.575 91.1991 81.6797 91.1991H82.6861C83.0322 91.1991 83.2053 91.0602 83.2566 90.7654C83.3079 90.4192 83.3784 86.5047 83.3784 85.1884V83.8722ZM85.5622 85.5709C85.5622 85.7782 85.5963 88.7226 85.5963 89.7974C85.5963 90.1436 85.6647 90.4214 85.9083 90.7675C86.1156 91.0966 86.7758 91.2355 87.434 91.2355C88.7865 91.2355 90.1733 90.6308 91.0387 89.4855C91.7652 88.5496 92.2865 87.1307 92.2865 85.5367C92.2865 84.1521 91.6968 82.6628 90.8998 81.761C89.9639 80.7568 88.4382 80.1328 87.0173 80.1328C86.6369 80.1328 86.1861 80.1328 85.9083 80.3059C85.6669 80.4448 85.5963 80.7226 85.5963 81.0687C85.5622 81.7952 85.5622 84.0474 85.5622 84.3252V85.5709Z" fill="white"/>
<path d="M97.8675 83.8722C97.8675 83.4235 97.7991 80.964 97.7649 80.7033C97.7307 80.2888 97.4871 80.2183 97.141 80.2183H96.2051C96.1367 80.2183 96.0662 80.1841 96.0662 80.0965V79.6286C96.0662 79.5602 96.1346 79.5239 96.2222 79.5239C96.7243 79.5239 97.626 79.5751 98.8397 79.5751C99.7072 79.5751 100.573 79.5239 101.44 79.5239C103.763 79.5239 105.635 79.7482 107.229 81.1008C108.374 82.0367 109.171 83.4918 109.171 85.5004C109.171 87.4748 108.615 88.791 107.472 90.0389C105.773 91.8743 103.068 91.8936 101.891 91.8936C101.233 91.8936 99.4658 91.8423 98.5982 91.8423C97.0726 91.8423 96.3803 91.8936 96.1367 91.8936C96.0683 91.8936 96.032 91.8594 96.032 91.7376V91.3038C96.032 91.2355 96.0662 91.1991 96.1709 91.1991H97.1773C97.5234 91.1991 97.6965 91.0602 97.7478 90.7654C97.7991 90.4192 97.8696 86.5047 97.8696 85.1884V83.8722H97.8675ZM100.051 85.5709C100.051 85.7782 100.085 88.7226 100.085 89.7974C100.085 90.1436 100.154 90.4214 100.397 90.7675C100.605 91.0966 101.265 91.2355 101.923 91.2355C103.276 91.2355 104.662 90.6308 105.528 89.4855C106.254 88.5496 106.776 87.1307 106.776 85.5367C106.776 84.1521 106.186 82.6628 105.389 81.761C104.453 80.7568 102.927 80.1328 101.506 80.1328C101.126 80.1328 100.675 80.1328 100.397 80.3059C100.156 80.4448 100.085 80.7226 100.085 81.0687C100.051 81.7952 100.051 84.0474 100.051 84.3252V85.5709Z" fill="white"/>
<path d="M114.541 86.229C114.541 86.4021 114.575 90.3871 114.575 90.5773C114.575 91.1307 114.853 91.2013 115.267 91.2013H115.996C116.064 91.2013 116.135 91.2354 116.135 91.323V91.7568C116.135 91.8615 116.066 91.8957 115.962 91.8957C115.754 91.8957 115.06 91.8444 113.43 91.8444C111.697 91.8444 110.934 91.8957 110.761 91.8957C110.656 91.8957 110.622 91.8615 110.622 91.7739V91.306C110.622 91.2376 110.656 91.2013 110.761 91.2013H111.455C111.801 91.2013 112.184 91.1671 112.252 90.6991C112.286 90.4555 112.321 86.7141 112.321 85.7803V84.5688C112.321 84.1542 112.286 81.0367 112.269 80.8102C112.218 80.3935 112.045 80.2204 111.558 80.2204H110.656C110.551 80.2204 110.517 80.1863 110.517 80.0987V79.6478C110.517 79.5623 110.551 79.526 110.62 79.526C110.827 79.526 111.731 79.5773 113.427 79.5773C115.092 79.5773 115.645 79.526 115.889 79.526C115.994 79.526 116.028 79.5944 116.028 79.682V80.0794C116.028 80.1841 115.959 80.2183 115.889 80.2183H115.231C114.85 80.2183 114.573 80.3572 114.573 80.6863C114.573 80.8593 114.539 84.6692 114.539 84.8786V86.229H114.541Z" fill="white"/>
<path d="M129.324 89.0175C129.376 89.0688 129.393 89.1222 129.359 89.1906C128.318 90.6799 126.654 92.0987 124.192 92.0987C121.974 92.0987 120.724 91.4406 119.651 90.4705C118.367 89.3273 117.78 87.3188 117.78 85.7931C117.78 84.0944 118.335 82.4683 119.549 81.1499C120.485 80.1457 121.976 79.3145 124.055 79.3145C125.651 79.3145 126.933 79.7995 127.557 80.1457C127.801 80.2845 127.869 80.2845 127.904 80.1457L128.042 79.6969C128.077 79.5922 128.111 79.5922 128.32 79.5922C128.527 79.5922 128.562 79.6264 128.562 79.87C128.562 80.182 128.908 82.9534 128.978 83.4726C128.995 83.5773 128.978 83.6286 128.91 83.6457L128.581 83.7504C128.495 83.7846 128.442 83.7162 128.391 83.5773C128.183 82.9534 127.767 82.088 127.038 81.3252C126.275 80.5987 125.374 80.0431 124.023 80.0431C121.25 80.0431 120.106 82.5367 120.106 85.0303C120.106 86.1051 120.418 88.1478 121.701 89.5346C122.846 90.7461 123.85 90.885 124.681 90.885C126.587 90.885 128.096 89.932 128.824 88.8765C128.912 88.7547 128.98 88.7034 129.032 88.7547L129.324 89.0175Z" fill="white"/>
<path d="M134.906 80.3059H134.421C133.868 80.3059 132.618 80.3059 131.891 80.5474C131.338 80.7888 130.677 81.9341 130.348 82.5217C130.297 82.6072 130.244 82.6777 130.158 82.6435L129.812 82.5217C129.744 82.4875 129.727 82.4363 129.744 82.3486C129.917 81.6905 130.507 79.4042 130.575 79.1627C130.609 78.9213 130.714 78.8508 130.782 78.8508C130.887 78.8508 130.955 78.9191 131.06 79.0238C131.406 79.37 131.752 79.4576 132.239 79.4747C133.175 79.5089 133.904 79.5794 135.603 79.5794H136.539C138.445 79.5794 139.173 79.511 139.97 79.4747C140.299 79.4576 140.96 79.2162 141.218 79.0238C141.357 78.9191 141.425 78.8508 141.53 78.8508C141.633 78.8508 141.669 78.9192 141.703 79.1264C141.737 79.4384 142.083 81.5858 142.222 82.417C142.239 82.5217 142.205 82.5559 142.154 82.573L141.808 82.6948C141.739 82.7119 141.703 82.6606 141.652 82.5559C141.41 82.0709 140.767 80.9619 140.282 80.6157C139.797 80.3401 138.237 80.3038 137.613 80.3038H137.128V89.5367C137.128 90.853 137.301 91.1991 137.718 91.1991H138.724C138.793 91.1991 138.827 91.2675 138.827 91.3551V91.7184C138.827 91.8231 138.793 91.8914 138.654 91.8914C138.481 91.8914 137.925 91.8402 136.054 91.8402C134.286 91.8402 133.558 91.8914 133.314 91.8914C133.212 91.8914 133.175 91.8572 133.175 91.7354V91.338C133.175 91.2333 133.227 91.1991 133.297 91.1991H134.286C134.633 91.1991 134.84 90.9919 134.857 90.7312C134.908 90.2803 134.908 84.9811 134.908 84.635V80.3059H134.906Z" fill="white"/>
<path d="M147.036 86.229C147.036 86.4021 147.07 90.3871 147.07 90.5773C147.07 91.1307 147.348 91.2013 147.763 91.2013H148.491C148.56 91.2013 148.63 91.2354 148.63 91.323V91.7568C148.63 91.8615 148.562 91.8957 148.457 91.8957C148.25 91.8957 147.555 91.8444 145.925 91.8444C144.192 91.8444 143.429 91.8957 143.256 91.8957C143.154 91.8957 143.117 91.8615 143.117 91.7739V91.306C143.117 91.2376 143.152 91.2013 143.256 91.2013H143.951C144.297 91.2013 144.679 91.1671 144.748 90.6991C144.782 90.4555 144.816 86.7141 144.816 85.7803V84.5688C144.816 84.1542 144.782 81.0367 144.765 80.8102C144.714 80.3935 144.54 80.2204 144.053 80.2204H143.152C143.047 80.2204 143.013 80.1863 143.013 80.0987V79.6478C143.013 79.5623 143.047 79.526 143.117 79.526C143.325 79.526 144.229 79.5773 145.925 79.5773C147.59 79.5773 148.143 79.526 148.387 79.526C148.491 79.526 148.526 79.5944 148.526 79.682V80.0794C148.526 80.1841 148.457 80.2183 148.387 80.2183H147.729C147.348 80.2183 147.07 80.3572 147.07 80.6863C147.07 80.8593 147.036 84.6692 147.036 84.8786V86.229Z" fill="white"/>
<path d="M160.851 80.7033C162.152 81.761 163.208 83.4747 163.208 85.8294C163.208 87.1114 162.861 88.4619 161.926 89.6392C160.817 91.026 159.325 92.0986 156.725 92.0986C155.684 92.0986 154.195 91.7867 152.808 90.9555C151.577 90.2097 150.278 88.323 150.278 85.8294C150.278 84.7909 150.573 83.1456 151.874 81.5345C153.4 79.6627 155.272 79.3165 156.763 79.3165C158.043 79.3187 159.43 79.5601 160.851 80.7033ZM154.195 81.0516C153.137 82.0729 152.635 83.8571 152.635 85.2439C152.635 89.7482 155.408 91.3401 156.864 91.3401C160.366 91.3401 160.919 87.4597 160.919 86.0046C160.919 82.2289 158.353 80.0815 156.69 80.0815C156.379 80.0794 155.374 79.9063 154.195 81.0516Z" fill="white"/>
<path d="M167.054 84.0111C167.054 86.9556 167.192 89.3808 167.227 89.9171C167.261 90.7825 167.468 91.1992 168.094 91.1992H168.545C168.684 91.1992 168.684 91.2676 168.684 91.3552V91.7526C168.684 91.8573 168.684 91.8915 168.545 91.8915C168.372 91.8915 167.331 91.8402 166.673 91.8402C166.222 91.8402 165.043 91.8915 164.87 91.8915C164.801 91.8915 164.765 91.8573 164.765 91.7355V91.3018C164.765 91.2676 164.799 91.1971 164.87 91.1971H165.46C165.91 91.1971 166.154 90.8167 166.239 89.759C166.257 89.447 166.361 87.0218 166.361 84.2504V82.0496C166.361 81.0111 165.774 80.2141 165.009 80.2141H164.455C164.387 80.197 164.351 80.1628 164.351 80.0923V79.6244C164.351 79.556 164.385 79.5197 164.455 79.5197C164.541 79.5197 164.68 79.5368 164.992 79.5538C165.304 79.5709 165.772 79.5709 166.534 79.5709C166.829 79.5709 167.088 79.5538 167.297 79.5368C167.522 79.5368 167.678 79.5197 167.782 79.5197C167.989 79.5197 168.094 79.5709 168.197 79.6756C168.37 79.8487 171.767 84.1094 172.113 84.5945C172.357 84.8701 175.06 88.2312 175.338 88.5774H175.406V86.7761C175.406 85.2526 175.406 84.3851 175.372 83.5197C175.338 82.8616 175.267 81.165 175.182 80.8701C175.06 80.4534 174.68 80.212 174.263 80.212H173.71C173.605 80.212 173.605 80.1436 173.605 80.056V79.6585C173.605 79.556 173.605 79.5197 173.744 79.5197C173.951 79.5197 174.507 79.5709 175.686 79.5709C176.727 79.5709 177.141 79.5197 177.351 79.5197C177.49 79.5197 177.524 79.588 177.524 79.6415V80.0389C177.524 80.1436 177.49 80.212 177.421 80.212H176.936C176.59 80.212 176.417 80.4897 176.366 81.1308C176.28 82.3081 176.105 85.2184 176.105 86.9855V91.5582C176.105 91.8018 176.105 92.0432 175.898 92.0432C175.656 92.0432 175.447 91.9043 175.308 91.7654C175.169 91.5924 174.233 90.5176 173.158 89.2376C171.945 87.7483 170.594 86.1201 170.385 85.8423C170.143 85.6009 167.368 82.1372 167.16 81.8936H167.056V84.0111H167.054Z" fill="white"/>
<path d="M7.00215 98.2056H4V96.7974H11.7436V98.2056H8.75002V105.103H7.00001V98.2056H7.00215Z" fill="white" fill-opacity="0.8"/>
<path d="M12.7415 96.7974H14.4851V99.9962H18.6881V96.7974H20.4317V105.103H18.6881V101.404H14.4851V105.103H12.7415V96.7974Z" fill="white" fill-opacity="0.8"/>
<path d="M28.8632 101.483H24.1154V103.693H29.3803L29.1709 105.105H22.3696V96.7996H29.1154V98.212H24.1132V100.069H28.8611V101.483H28.8632Z" fill="white" fill-opacity="0.8"/>
<path d="M32.3739 101.782V105.105H30.6453V96.7996H34.9893C36.8376 96.7996 37.9466 97.6906 37.9466 99.1329C37.9466 100.184 37.3632 100.842 36.4786 101.103C36.8846 101.244 37.7308 101.599 37.7308 103.077V103.475C37.7308 104.067 37.7222 104.725 37.8333 105.103H36.0449C35.9102 104.738 35.9038 104.203 35.9038 103.381V103.107C35.9038 102.144 35.5406 101.78 34.2521 101.78H32.3739V101.782ZM32.3739 100.447H34.5897C35.6709 100.447 36.1624 100.062 36.1624 99.2697C36.1624 98.5325 35.6602 98.135 34.6132 98.135H32.3718V100.447H32.3739Z" fill="white" fill-opacity="0.8"/>
<path d="M41.2157 103.015L40.3802 105.105H38.5811L41.9999 96.7996H44.2093L47.7905 105.105H45.9016L45.0191 103.015H41.2157ZM44.5127 101.599C43.6623 99.5688 43.252 98.5624 43.0576 97.9491H43.0447C42.8631 98.5453 42.3823 99.8594 41.69 101.599H44.5127Z" fill="white" fill-opacity="0.8"/>
<path d="M48.6411 96.7974H52.8121C54.7864 96.7974 55.9595 97.8017 55.9595 99.353C55.9595 101.03 54.7779 102.013 52.8035 102.013H50.3933V105.103H48.6411V96.7974ZM50.3933 100.635H52.6411C53.5877 100.635 54.2117 100.327 54.2117 99.3829C54.2117 98.6244 53.7266 98.1671 52.6411 98.1671H50.3933V100.635Z" fill="white" fill-opacity="0.8"/>
<path d="M59.6213 105.105V102.073C59.6213 101.971 59.5892 101.915 59.5251 101.821L56.0764 96.7974H58.1512C59.0166 98.1372 60.1726 99.8551 60.5657 100.609C60.9867 99.8615 62.1405 98.1372 63.0081 96.7974H64.9141L61.4226 101.885C61.3777 101.953 61.3713 101.996 61.3713 102.099V105.103H59.6213V105.105Z" fill="white" fill-opacity="0.8"/>
<path d="M177.527 100.768H67.9963V102.43H177.527V100.768Z" fill="white" fill-opacity="0.8"/>
</g>
<defs>
<filter id="filter0_d_10_437" x="0" y="0" width="181.527" height="113.105" filterUnits="userSpaceOnUse" color-interpolation-filters="sRGB">
<feFlood flood-opacity="0" result="BackgroundImageFix"/>
<feColorMatrix in="SourceAlpha" type="matrix" values="0 0 0 0 0 0 0 0 0 0 0 0 0 0 0 0 0 0 127 0" result="hardAlpha"/>
<feOffset dy="4"/>
<feGaussianBlur stdDeviation="2"/>
<feComposite in2="hardAlpha" operator="out"/>
<feColorMatrix type="matrix" values="0 0 0 0 0 0 0 0 0 0 0 0 0 0 0 0 0 0 0.25 0"/>
<feBlend mode="normal" in2="BackgroundImageFix" result="effect1_dropShadow_10_437"/>
<feBlend mode="normal" in="SourceGraphic" in2="effect1_dropShadow_10_437" result="shape"/>
</filter>
</defs>
</svg>
